# xmcd
#
# Track frame offsets:
#  150
#  17280
#  34650
#  49787
#  77070
#  91207
#  110914
#  121452
#  145124
#  162353
#  179913
#  197355
#  214439
#  230939
#  244188
#  262451
#  278833
#
# Disc length: 4023 seconds
#
# Revision: 0
# Processed by: cddbd v1.5.1PL0 Copyright (c) Steve Scherf et al.
# Submitted via: Collectorz.com Music Collector 6.9
#
DISCID=010fb511
DTITLE=Various Artist - Honky Tonk 13
DYEAR=1900
DGENRE=
TTITLE0=Robert Lee Castleman - Nobody Said That (It Would Be Easy)
TTITLE1=Mohead - Here To Stay
TTITLE2=Mohead - Country Blue
TTITLE3=Paul Michiels - Forever Young
TTITLE4=Chris Hillman and Steve Earle - High Fashion Queen
TTITLE5=Kevin Bloody Wilson - Santa Was Stoned
TTITLE6=Steve Earle - Me And the Eagle
TTITLE7=Steve Earle - State Trooper
TTITLE8=Steve Earle - Transcendental Blues
TTITLE9=Steve Earle and Sheryl Crow - Time (Has Come Today)
TTITLE10=Steve Earle and the Supersuckers - Before the Make Me Sin
TTITLE11=Steve Earle - Copperhead Road
TTITLE12=Bill Engvall - I'm Getting Sued By Santa Claus
TTITLE13=Robby Turner and Johnny Cash - Steel Guitar Rag
TTITLE14=Lee Roy Parnell - She Won't Be Lonely Long
TTITLE15=Lee Roy Parnell - What Kind of Fool Do You Think I Am
TTITLE16=Lee Roy Parnell - John the Revelator
EXTD=
EXTT0=
EXTT1=
EXTT2=
EXTT3=
EXTT4=
EXTT5=
EXTT6=
EXTT7=
EXTT8=
EXTT9=
EXTT10=
EXTT11=
EXTT12=
EXTT13=
EXTT14=
EXTT15=
EXTT16=
PLAYORDER=
